<?xml version="1.0" encoding="UTF-8"?>
<svg width="184.1" height="190.62" enable-background="new 0 0 184.095 190.618" viewBox="0 0 184.095 190.618" xmlns="http://www.w3.org/2000/svg">
 <g fill-rule="evenodd">
  <path d="m166.47,22.56c1.256-.136 2.064.175 1.92,1.44-1.25.135-2.06-.175-1.92-1.44z"/>
  <path d="m136.71,23.04c1.051.472-.432,2.403-1.439,2.4 .29-.999 1.01-1.551 1.44-2.4z"/>
  <path d="m152.55,24.48c.964-.164 1.502.098 1.44.96-.96.163-1.5-.098-1.44-.96z"/>
  <path d="m128.08,27.84c1.546-.417.054,3.261-.96,3.36-.29-1.723.55-2.323.96-3.36z"/>
  <path d="m130.96,39.84c-.272,1.488.13,3.65-1.44,3.84 .09-1.665-.18-3.69 1.44-3.84z"/>
  <path d="m29.675 44.64c-1.132 1.544-1.94-1.688 0 0z"/>
  <path d="m33.035,47.04c-1.357.397-1.244-.676-2.4-.48-.071-.639 1.952-1.449.48-1.92 .54-1.265 1.86.645 2.4.96l-.72.56 .24.88z"/>
  <path d="m34.235,46.48-.24-.88c.467-.013.372-.587.48-.96 1.405-.125 1.475,1.085 2.88.96-.042,1.426-2.636,2.768-3.84,1.44l.72-.56z"/>
  <path d="m78.155 50.4c-1.132 1.544-1.94-1.689 0 0z"/>
  <path d="m130,50.4c.726-1.695.91.884.479.96-.29.05-.61-.674-.48-.96z"/>
  <path d="m80.555,52.8c.06-1.06 2.036-.204 2.88-.48-.06,1.06-2.037.203-2.88.48z"/>
  <path d="m116.08 56.64c-1.66-1.241 2.46-1.16 0 0z"/>
  <path d="m116.08,57.12h.96c.224,1.024-.686.915-1.44.96 .09-.389.48-.479.48-.96z"/>
  <path d="m106,58.56c-.07,1.049-1.21,1.031-2.4.96 .4-.714 1.54-.695 2.4-.96z"/>
  <path d="m164.55,61.44c2.229.266.402,3.608-.479,3.84-1.87-.484-.074-1.652-.48-3.36 .59.536.99.417.96-.48z"/>
  <path d="m101.68,63.36c-.209.59-.614.985-1.44.96 .2-.591.61-.986 1.44-.96z"/>
  <path d="m99.755,64.8c-.316.644-1.026.894-1.92.96 .115-.844.826-1.094 1.92-.96z"/>
  <path d="m166.96,67.2c1.475-.734 1.475,3.134 0,2.4v-2.4z"/>
  <path d="m164.08,78.24c.782-.084.969,3.14-.48,2.4-.2-1.157.87-1.044.48-2.4z"/>
  <path d="m150.63,78.72c1.873-.336.023,1.683 0,2.4-1.4-.408.63-1.208 0-2.4z"/>
  <path d="m162.16,83.52c1.352.485-.133,2.039 0,2.88-1.46-.592.52-1.651 0-2.88z"/>
  <path d="m57.515 86.88c1.652 1.24-2.469 1.16 0 0z"/>
  <path d="m151.12,88.8c1.193.072.14,1.625 0,1.92-1.44-.316.45-1.026 0-1.92z"/>
  <path d="m89.195,97.919h2.4c-.463,1.137-.842,2.358-2.88,1.92v-1.44l.72.24-.24-.72z"/>
  <path d="m113.2,97.919c-.442.838-1.501,1.06-2.88.96 .59-.688 1.64-.909 2.88-.96z"/>
  <path d="m144.88,98.399c1.5.775-.984,1.521-.96,2.4-1.5-.78.98-1.52.96-2.401z"/>
  <path d="m80.075,108c1.301.425-.404,2.13-.96.96 .118-.52.954-.33.96-.96z"/>
  <path d="m129.51,108c-.209.59-.614.985-1.439.96 .21-.59.62-.99 1.44-.96z"/>
  <path d="m77.675,116.64c1.276-.324 2.444-.756 3.36-1.439 1.273-.153-.449,2.688 1.44,1.92-.832,1.253-4.226,2.253-5.28.479l.72-.24-.24-.72z"/>
  <path d="m126.63,112.32c-.408.713-1.208,1.032-2.399.961 .41-.71 1.21-1.03 2.4-.96z"/>
  <path d="m62.315,115.2h.96v.96h-.96v-.96z"/>
  <path d="m89.195,123.84c1.348.212.567,1.012 1.44,2.4-.386-.255-.779-.501-1.44-.48v-1.92z"/>
  <path d="m112.24,124.32c-.116.845-.826,1.095-1.92.96 .31-.64 1.02-.9 1.92-.96z"/>
  <path d="m93.515,127.2c.148-.651 1.202-.398 1.92-.48-.134,1.11-1.282,1.1-1.92.48z"/>
  <path d="m88.715,131.52c.979.142.941,1.299 1.92,1.44-.558,1.28-2.548.04-1.92-1.44z"/>
  <path d="m101.68,132c-.316.644-1.026.894-1.92.96 .111-.84.82-1.1 1.92-.96z"/>
  <path d="m69.995,132.48c1.196.195.029,1.861-.96,1.44 .17-.63.845-.76.96-1.44z"/>
  <path d="m69.515,161.76c.816-.177.906.374.96.96-.408-.088-.453.188-.48.479-.563-.08-.405-.88-.48-1.44z"/>
  <path d="m70.955,164.64c1.303.437-.489,1.682-.48,2.4-1.304-.44.489-1.68.48-2.4z"/>
  <path d="m181.83 179.52c2.35-1.27 3.62 1.59 0 0z"/>
  <path d="m134.79,182.88c.859.74 2.404.795 1.92,2.88-1.58-.02-1.83-1.37-1.92-2.88z"/>
  <path d="m120.39,186.72c-1.499.22-1.534-1.025-1.439-2.4 .95.33 1.28,1.28 1.44,2.4z"/>
  <path d="m115.59,186.24c.783-.083.97,3.141-.479,2.4-.39-1.36.68-1.24.48-2.4z"/>
  <path d="m159.75,74.4c.048,1.487-.218,2.662-.96,3.36l-.789-.377-.171.857h-.48l.24-.72-.72.24c.261-1.749.341-2.213.96-4.32 .389.091.479.482.96.48l.24.72 .72-.24z"/>
  <path d="m156.88,78.24h.479c-.169.63-.845.755-.96,1.44-.794.206.043-1.79.48-1.92v.48z"/>
  <path d="m160.71,2.88c.766-1.748 2.916-3.185 5.28-1.92 .438,3.158-1.955,3.485-2.4,5.76 .62.897 2.134-1.354 1.92-2.88 2.474-.622 3.609,1.8 2.4,3.36 .998,1.051 1.551-.421 2.399.48-.626,2.867.903,3.577 1.44,5.28-3.025,1.602-2.652,5.957-.48,8.16l-.856-.171-.583.651c-2.37.375-4.921-4.293-5.76-.96-1.33-1.868-.798-3.452-1.44-5.28l.24-.48-.24-.48c1.049-.324.014-2.519-1.439-1.92l-.48-.24-.48.24v-.48c-.523-2.448-3.043-.252-3.84-1.92-.985.134-.958,1.282-1.439,1.92-.908-.852-3.171-.35-4.8-.48l.239-.88-.72-.56v-.96l.88.24 .561-.72c1.478-.357.922,1.318 2.399.96 .115-1.325 1.416-1.465 2.4-1.92l.479.24 .48-.24c1.761,2.756 1.36-2.573-.48-.96h-.479v.48c-.954-.006-.61-1.31-1.92-.96l.239-.72-.72-.24c.254-.386.501-.779.48-1.44-1.507-.227-1.269,1.292-2.4,1.44l-.336-.816-.624-.624c-1.679-2.57 3.159-4.653 4.32-1.92 1.233-.046.687-1.874 1.92-1.92 1.975.265 2.522,1.957 2.399,4.32h.96l.48.24 .48-.24c.108.611 1.432.629 1.439,0-.775.135-.826-.454-1.439-.48l.239-.72-.72-.24z"/>
  <path d="m174.23,29.04 .881-.24c.062,1.183.072,2.312-.48,2.88-1.662-.898-3.114-2.006-5.76-1.92-.785,1.615-1.249,3.551-1.92,5.28-1.759-.159-2.667.533-3.84.96v.96l-.881-.24-.56.72c-.408.088-.453-.188-.479-.48-.977,1.424-1.576,3.224-3.36,3.84-2.692-1.948-6.288-2.992-7.2-6.72l-.24-.48-.239-.48c.467-.013.372-.587.479-.96h-.96c-.091.389-.481.479-.479.96l-.721-.24-.239.72c-2.792-1.413-4.39-9.356-1.921-11.52 2.271-.19 2.189,1.971 4.801,1.44l.479.24 .48-.24c-.291,1.149-.69,2.189-.48,3.84l-.88-.24-.56.72c-.821-.021-1.244.356-1.44.96 1.094-.659 1.805,1.237 1.92,0l.72.24 .721-.24c5.521-.18 8.424-1.504 14.399-1.44v-.96l.72.24 .24-.72c3.108-.228 3.106,2.653 6.24,2.4l.56.72zm-10.15,2.16c.068-.567.854-1.088 0-1.44-.08.567-.86,1.088 0,1.44zm-6.25,4.8c1.266.146 1.238-1.002 1.439-1.92-.512-.448-.148-1.771-1.439-1.44 .66,1.518.11,1.604 0,3.36zm3.37-1.92c.988.421 2.155-1.245.96-1.44-.12.685-.8.809-.96,1.44z"/>
  <path d="m168.79,53.04 .56-.72c1.071,1.649 1.865,3.575 1.92,6.24l-.88-.24-.56.72c-1.539-1.007-2.884-4.275-1.92-6.24l.88.24z"/>
  <path d="m170.71,59.28 .56-.72c.505,1.754 1.398,5.076.48,6.72l-.88-.24-.561.72c-1.773-.466-1.469-3.011-1.92-4.8 1.603.482 1.574-.666 1.44-1.92l.88.24z"/>
  <path d="m168.02,80.331 .857-.171c-1.895,4.669-4.059,9.189-5.28,13.92-1.139,4.409-1.04,6.992-2.88,9.6-.841,1.19-2.498,1.514-3.84,2.88-2.728,2.779-5.086,6.539-8.16,9.601-4.48,1.442-8.326,5.57-13.439,7.199-4.672,1.489-10.139,1.098-12.961,5.28l-.336-.815-.624-.624c1.654-3.146 4.325-5.275 9.12-5.28v-.96l.721.24-.24-.721h2.399c-.276-1.162-1.812-1.067-2.88-1.439l.24-.721-.72-.239c-.097-1.856 2.374-1.146 3.359-1.92v-.96l.721-.24-.24-.72h1.92v-1.44l.72.24 .24-.721h.96l-.24,1.2 1.2-.239c.092.389.481.478.48.96l-.721.56 .24.88c-.933,2.267-.65,1.43.48,1.44-.48-1.44.239-2 .239-2l-.239-.88c1.771.011 3.305-.215 3.359-1.921-1.193-.052-1.485-.899-2.399,0l-.24-.72-.72-.24c-.408.089-.453-.187-.48-.479l.72-.24-.239-.72c2.183-.19 4.034-1.089 4.8.96 .775.135.826-.454 1.439-.48 .514-1.793-1.191-1.368-.96-2.88h.48l.479.24 .48-.24c.091.389.481.479.479.96 .775.136.827-.453 1.44-.479l.56.72 .881-.24c-.042.682-.08,1.359.479,1.44-.088-.408.188-.453.48-.48-.96-.96-.721-1.84-.721-1.84l-.72-.56c.206-.914 1.034-1.206.96-2.4l.48.24 .479-.24c2.001-.239 2.478-2.002 2.88-3.84 .651.148.398,1.202.48,1.92 1.451-1.269 1.803-3.637 3.359-4.8v-.48h-.479c1.26-2.259 3.167-3.873 3.84-6.719v-.8l.48-.64c2.627-2.013 3.318-5.961 4.319-9.6h1.92l.58.65z"/>
  <path d="m111.51,144.88 .721.56c-1.171,2.67-5.14,2.541-8.16,3.36 1.308,6.692 3.843,12.156 6.24,17.76l-.721.561 .24.88c-2.703.768-.815,2.163.48,2.88-.55-1.51.753-1.167.96-1.92l.239-.721 .24-.72c.718.562 1.963.597 2.4,1.44l-.721.239 .24.721c-.773-.206-1.61,1.789-.479,1.92l-.24.479 .24.48c.118.521.954.325.96.96l-.24.72 .72-.24c-.078.559.106.854.48.96 .592-1.458 1.65.521 2.88,0v-.96l.88.24 .56-.72h2.4l.479.24 .48-.24c.472,1.472 1.28-.552 1.92-.48l.72-.239 .721.239c-.279,1.72 1.42,1.46 2.88,1.44l.72.24 .24-.721c.386.254.779.501 1.439.48l.48,1.152 .479-1.152h1.44v-.96h1.92c.44,3.039 2.055-.131 3.36.96v-.48l.88.24 .56-.72c2.407-.167 3.288,1.192 3.84,2.88-6.606.068-11.013,1.464-18.72,0l-.72.24 .24.72h-1.44l-.24-.72-.72.239c-.148-.651-1.202-.397-1.92-.479v1.44l-.72.56 .239.88c-5.963-2.096-15.236-7.381-21.599-1.92-.861.061-1.013-.588-1.92-.48-1.527.074-2.112,1.089-3.84.961 .848-2.673 3.556-3.484 4.8-5.761-5.896-3.609-12.173,1.67-17.76.96l.24-.88-.72-.56c1.937-3.184 8.236-2.004 9.6-5.76-.995-6.046-3.502-10.578-4.8-16.32-5.228-1.973-8.721-5.679-15.36-6.24-1.512-1.688-3.443-2.956-6.72-2.88-2.853-2.587-5.298-5.582-9.12-7.2v-1.439c-4.57-1.163-4.584-7.639-7.68-12.48-2.385-3.729-4.797-3.686-3.36-8.16 .557-.402 1.287-.633 2.4-.479-1.331-.909-3.169-1.311-4.32-2.4-.257-1.856.857-2.343.48-4.319h2.4c-.979-1.976-2.48-.2-3.84-.48-5.56-1.146-9.388-5.544-10.56-11.52-3.761-1.203-9.375-3.1-8.16-7.68-.829-1.731-2.977-2.144-3.84-3.84 3.731-8.916-6.452-9.469-9.12-14.88 .597-1.482 1.68-2.48 2.4-3.84l.56.72 .88-.24c1.409,6.077 10.694,6.969 16.8,9.12 2.241.79 4.486,2.245 7.68,2.88l-.72.24 .24.72c-1.709.704-5.211.888-5.76-.96-1.107-.147-.533,1.387-1.44,1.44 1.417,1.942 3.413,3.307 7.2,2.88-1.863,1.604.525,4.539-1.44,5.76 .567.873 2.502.377 3.36.96l-.24.88 .72.56c.088.408-.187.453-.48.48 .408,1.408 1.208-.625 2.4,0 .227,1.507-1.292,1.268-1.44,2.4 2.203.443 2.319-1.201 4.32-.96-.254.386-.5.779-.48,1.44 1.168.271 3.115-2.377 3.36,0l-.24.72 .24.72c-1.157-.197-1.043.876-2.4.48-.088.408.188.453.48.48l-.24.48 .24.48v.96l-.72.24 .72.24c-.119.521-.954.326-.96.96 1.649,1.617 3.472-.664 5.28-.48-1.469,1.056-.579,2.793 1.44,2.879l-.24.881 .72.56v.48l-.72.239 .24.721c-.851.109-2.404-.484-1.92.96l.24.239 .24.24c-.408-.088-.453.188-.48.48-.088.408.187.452.48.479l-.24.72 .72-.239v.96l-.72.239 .72.24c-.692.748-1.933.947-1.44,2.88 2.095.336 2.134-1.386 3.84-1.439 1.025.98-.135,1.899-.48,2.88h.96l-.24.72 .72.24c-.148,1.132-1.667.893-1.44,2.4l-.24.72 .72-.24c.135.775-.454.826-.48,1.44h.96l.624.624 .816.336c-1.051.998.421,1.551-.48,2.399 .918.887 2.038-2.098 3.36-2.399l.24.72 .72.24c-.292,1.147.603,3.482-.48,3.84 1.108.651 2.14,1.38 3.84,1.439l-.24.48 .24.479c-.006.954-1.31.61-.96,1.92h.96l-.236.72 .72-.24c-1.337,2.165 1.286,2.471-.48,3.84 .141,1.142 1.299-.533 1.44-.96 .854.352.069.873 0,1.44 1.802-.495 3.808-.147 5.28-3.36 1.085.194-.253,2.813 1.92,1.92l-.24.72 .72-.239c3.19-.03-.814,2.253-1.92,2.399 .23,1.51-.684,1.877-.96,2.88 1.929-.649 1.27-.148.96,1.44 1.357-.396 1.244.677 2.4.479 1.31-2.37 3.847-3.514 3.84-7.199-.328-.952-2.86.299-2.4-1.44h.96v-.96c1.356-.396 1.243.677 2.4.48l-.24.72 .72-.24h.96l-.24.88 .72.561c.137.836-1.533,2.576.48,2.399-1.255,2.105-2.819,3.901-2.88,7.2 .427-.213.858-.422.96-.96l.48.24 .48-.24h.48l.48.24 .48-.24c-.066,1.693-1.374,2.146-1.44,3.84 1.88.28 1.226-1.975 2.4-2.399l.24.72 .72-.24c1.686-1.515 2.472-3.928 3.36-6.24 .852.749.843,2.357 2.4,2.4-.467,1.773-1.724,2.756-1.44,5.28 1.011,1.574 4.21,3.01 5.28.479l.72.24 .72.24c2.943.863 2.33-1.83 3.84-2.4l.56.72 .88-.239c.016,2.664-.505,3.639 0,5.279 .98-1.28.873-1.407 2.88-.96-.053,1.194-.899,1.486 0,2.4 .703-1.558.919-1.361 2.88-.96v-1.44l.72.24 .24-.72c.448.352.727.872.96,1.439 .408.089.453-.188.48-.479l.48.24 .48-.24h.48l-.24.72 .72-.24c1.369,1.337 3.852-.285 4.801-.96l.72.24-.24-.72h.96l-.25.88zm-79.435-58.481c-2.294-1.334-1.162,1.575 0,0zm63.84,63.841c-1.743.018-2.613-2.427-3.84-1.439 1.385,9.016 2.037,18.763 11.04,20.16-1-7.64-4.873-12.41-7.205-18.72zm5.285,22.56c.851-.109 2.404.483 1.92-.96-1.1-.14-1.81.12-1.92.96z"/>
  <path d="m116.32,169.68-.24-.72c3.223-.512 6.873-1.086 7.2,2.399l-.721.24-.72.24c-1.356.396-1.243-.677-2.4-.48l-.479-.239-.48.239c-.077-.562-.875-.404-1.439-.479l-.433-.912-1.008-.048 .72-.24z"/>
  <path d="m136.67,172.27-.912-.432c1.257-.823 1.439-2.721 2.88-3.36l.48.24 .479-.24c.007.954 1.31.61.96,1.92-.639.481-1.448.792-1.92,1.44l-1.2.24 .24,1.199h-.96l-.05-1.01z"/>
  <path d="m13.115,61.04-.72-.56v-1.44l.24-.72-.24-.72c3.768,1.672 7.328,3.552 11.52,4.8l-.72.56 .24.88c-1.696.766-2.627-.489-3.84.96-2.527-.673-4.236-2.164-6.72-2.88l.24-.88z"/>
  <path d="m10.139,56.976-.624.624c-2.792-.728-4.785-2.255-4.8-5.76l.88.24 .56-.72c1.39,1.97 3.431,3.289 4.8,5.28l-.816.336z"/>
  <path d="m24.635,63.28-.24-.88c.697.262 2.481-.561 2.4.48l-.84.48 .84.48c-.135.775.454.826.48,1.44l-.651.583 .171.857c-1.706-.054-1.745-1.775-3.84-1.44-.264-1.064.917-.684.96-1.44l.72-.56z"/>
  <path d="m28.955,64.24-.24-.88c2.983.537 5.462,1.578 6.24,4.32-.845-.69-1.094-.44-.96.96-1.966.206-3.075-.445-4.32-.96l.24-.88-.72-.56c-.169-.63-.845-.755-.96-1.44l.72-.56z"/>
  <path d="m44.315,75.76-.24-.88c.389-.091.479-.482.96-.48l1.016.646 .425-1.126h1.44l-.24.72 .72.24c-.652.982-4.324,3.408-4.8,1.44l.719-.56z"/>
  <path d="m44.635,72.24-.56.72c-.703-.417-1.521-.718-1.44-1.92l1.2-.24-.24-1.2h.96l-.24.72 .72.24c.605.642 1.443.943.48,1.92l-.88-.24z"/>
  <path d="m43.035,66.959-.88.24c-.203-1.003.329-1.271.48-1.92-.375-1.704-3.464-.696-3.84-2.4l.24-.48-.24-.48c3.338,1.007 7.603.324 10.08-.96v-.96l.88.24 .56-.72c1.36.5 2,.5 3.36,0l-.24.72 .72-.24v.48l-.72.56 .24.88c-1.035,1.205-3.756.724-4.32,2.4l-.72-.24 .24.72c.006.954 1.31.61.96,1.92-2.962.422-3.739.076-6.24.96l-.56-.72z"/>
  <path d="m53.846,98.982-.651-.583c.013-.467.587-.372.96-.479l-.171.857 .651.582c-.013.468-.587.373-.96.48l.171-.857z"/>
  <path d="m55.286,98.502-.651-.583c.723-.877 2.071-1.129 2.88-1.92l.72.24 .24-.72c1.15,1.089 2.645,1.834 4.8,1.919l-.24.721 .24.72v1.44l-.24.72 .72-.24v.96l-.72.561 .24.88c-.387.412-1.315.285-1.44.96-.368-1.751-3.134-2.991-2.4-4.32l.24-.72-.72.239v-.479c-.625-1.054-2.595.567-3.84.479l.171-.857z"/>
  <path d="m58.235,93.36-.72.24c-1.398-2.203-5.744-3.745-5.28-6.24l.72-.24 .72.24c1.191.249 1.71,1.17 2.4,1.92l.24.72 .72-.24c.013.467.588.373.96.48l.48.24 .48-.24c-.395,2.514 2.314-1.075 1.92,1.44l-.24.72 .24.72c-1.532-.412-1.485.755-2.4.96l-.24-.72z"/>
  <path d="m71.675,102.8-.72-.56c1.195-.046 2.127-1.398 3.36-1.44 .706-.024 1.416.964 1.44.96 1.544-.218.414-2.108 2.4-.479v.479h.48c-.091.389-.481.479-.48.96l-1.12-.16 .16,1.12h-5.76l.24-.88z"/>
  <path d="m96.635,104.56-.24-.88c1.548-1.332 4.973-.787 6.72-1.92l-.24.72 .72.24c.148.651 1.202.398 1.919.48l-.239.88 .72.56c-3.613,1.906-6.393,1.5-10.08.48l.715-.56z"/>
  <path d="m49.835,105.12h-.48c1.152-1.368 2.75.23.48.479v-.48z"/>
  <path d="m76.475,128.24-.72-.561c.684-2.715 2.759-2.409 4.32-3.36l.24.721 .24-.721c1.973.685-.949,2.662 0,5.28l-.72-.24-.24.721c-.803-.637-1.608-1.272-3.36-.96l.24-.88z"/>
  <path d="m89.435,140.88-.72.24c-.046-1.234-1.874-.687-1.92-1.92l.72-.24-.24-.721c.652-2.975 2.442-2.007 5.28-2.399 .139,2.699-.842,4.277-2.4,5.28l-.72-.24z"/>
  <path d="m159.75,86.64-.48-.24h-.479l.24-1.32-1.2-.6c.078-.558-.106-.854-.48-.96v-.48h-.479c.562-.718.597-1.963 1.439-2.4l.48.24 .479-.24v.48c.119.604.955.484.96,0 .247,1.315.745,3.992 0,5.76l-.48-.24z"/>
  <path d="m151.59,19.44-.479.72c-1.256.135-2.065-.175-1.92-1.44 2.11.848 6.676-3.619 9.119-.96l-.239.72 .239.72c-.467.013-.372.587-.479.96l-.72.56 .239.88c-3.072,1.07-3.051-.681-5.279-1.44l-.48-.72z"/>
  <path d="m121.28,34.16 1.039-.08c-.396,2.163-2.562,2.557-1.92,5.76-1.688,1.753-4.796,3.825-4.319,6.24-2.748-.055-3.801,3.697-6.24,2.4l.24-.88-.721-.56c5.232-2.928 7.532-8.788 11.04-13.44l.88.56z"/>
  <path d="m66.395,45.84 .24.72c-.123.997-2.109.131-2.4.96l-.24-.72-.24.72c-.408.088-.453-.187-.48-.48-1.854-.094-3.537-.017-4.8.48l.24-.72-.72-.24c-.088-.408.188-.453.48-.48-2.159-.434-4.878-.161-8.16-.48 .162-2.715 1.41-2.664-.48-4.32l.816-.336 .624-.624c5.071,1.648 9.715,3.725 15.36,4.8l-.24.72z"/>
  <path d="m53.435,53.52-.24-.72c.013-.467.587-.373.96-.48l-.08,1.04 1.04-.08c.328-.371 2.86-1.25 2.4.48-1.268.012-3.007-.448-2.4,1.44-.717-.723-2.736-.144-2.4-1.92l.72.24z"/>
  <path d="m49.499,40.176-.624.624c-1.157-.197-1.043.876-2.4.48 .263-1.915.263-1.445 0-3.36l.48.24 .48-.24c.904.696 2.494.706 2.88,1.92l-.816.336z"/>
  <path d="m149.75,7.92-.56.72c-.631-.169-.756-.845-1.44-.96 .612-.988.766-2.434 2.4-2.4l.582.651 .378.789c-.254.386-.501.779-.48,1.44l-.88-.24z"/>
  <path d="m18.155,20.64c-1.709-.531-1.582-2.898-3.84-2.88l.24-.88-.72-.56c.721-2.639 2.189-4.531 5.28-4.8l-.24.48 .24.48c-2.68.644-2.348,5.877-.48,7.2l-.4.4-.08.56z"/>
  <path d="m4.955,27.76 .72.56c-1.024,1.796.057,2.728.96,3.84l-.72.24 .24.72c-2.301-.579-4.992-.768-5.76-2.88-.493-1.613 1.493-.747 2.4-.96-.091-.389-.481-.479-.48-.96l.72-.56-.24-.88h2.4l-.24.88z"/>
  <path d="m9.755,41.2-.24-.88c.775.135.826-.454 1.44-.48v.48h.48v.48c.697.743 1.872,1.008 3.36.96 1.151-.929 1.466-2.694 3.36-2.88 .119.521.955.326.96.96h-.48v.48h-.96c-.264,1.064.917.683.96,1.44h-.48v.48h-.96c.916.684 2.084,1.116 3.36,1.44-1.2.851-.519.612-.48,2.4 1.022-.208.934-1.801 2.88-.48l-.24.72 .24.72c-1.698,1.757-.172,2.969.48,4.8l-.857-.171-.583.651c-2.941.701-1.764-2.717-3.84-2.88-1.396.417-.54.718-.48,1.92-4.794-1.286-8.45-3.71-12.96-5.28 .123-2.758 3.266-2.494 6.24-2.4-.153-1.127-1.486-1.074-1.92-1.92l.72-.56z"/>
  <path d="m23.915,54.24 .48-.96c2.199,1.321 3.96,3.08 5.76,4.8l-.72.24-.24.72c-2.175-.064-3.305-1.174-5.28-1.44 2.264-1.226-1.037-1.542-2.4-1.92 1.611-.986.337-.992 0-2.4 .389.091.479.481.96.48h.48l.96.48z"/>
  <path d="m7.355,39.84-.24.96c-.558.078-.854-.106-.96-.48l.84-.48 .12-.96h.48l-.24.96z"/>
  <path d="m5.023,38.982 .171.857c-2.519-.201-2.762-2.678-4.32-3.84 1.284-.756 2.384.212 3.84-.96l-.24.72 .721.241c-.088.408.188.453.48.48l-.24.72 .72.24c-.091.389-.481.479-.48.96l-.652.582z"/>
  <path d="m27.275,25.92c.56.72 1.386,1.173 1.44,2.4-.948-.332-1.279-1.28-1.44-2.4z"/>
  <path d="m131.92 26.4c1.44-3.203-1.25 3.832 0 0z"/>
  <path d="m141.04,70.08c1.591.469-.536.949-.48,1.44-1.4-.269.73-.749.48-1.44z"/>
  <path d="m139.59,72c-.632.968-1.576,1.625-2.88,1.92 .64-.968 1.58-1.625 2.88-1.92z"/>
  <path d="m154.96,81.12c1.104.379-.826,1.679-.96,2.4-1.5-.775.98-1.52.96-2.4z"/>
  <path d="m120.39,84c2.051,1.325-1.994.51-1.92,1.44-1.65-.929 1.84-.669 1.92-1.44z"/>
  <path d="m94.475,98.879c.688-1.418.368,1.113-.96.479-.876-.371.287-.515.96-.479z"/>
  <path d="m70.955,100.8c-.109.691-1.433.167-1.44.96-1.205-.2.461-1.37 1.44-.96z"/>
  <path d="m119.92,105.12c.672.169.041.845-.48.96-.078.558.106.854.48.96-.195,1.195-1.861.028-1.44-.96 .38-.41 1.31-.29 1.44-.96z"/>
  <path d="m74.795,110.88c.295-.428.58-.858 0-.96 .565-1.45 2.38-1.649 3.84-.96-.174.983-3.539,1.21-2.4,1.92-.21.71-.614-.19-1.44,0z"/>
  <path d="m69.995,130.56c1.831.64-2.618,3.93 0,0z"/>
  <path d="m54.635,177.12c1.811,2.191 3.664,2.863 3.36,6.24-2.514,2.178-6.58.706-8.64.48 1.103-3.314-3.561-3.371-4.8-5.76l.72-.24-.24-.721c.76-2.729 2.964,1.513 3.84,0l.72-.239 .24-.721c1.223.857 2.8,1.36 3.84,2.4v-.96l.72.24 .24-.72z"/>
  <path d="m37.115,175.92-.24.72c-2.088-.604-5.234-2.264-4.32-4.32 2.829-.269 2.545,2.575 4.8,2.88l-.24.72z"/>
  <path d="m130.96,183.84v-.96c1.478.336.922.336 2.399,0 .169,2.523 2.743,4.755.96,7.68-1.649.21-2.689-.189-3.84-.48v-1.92c1.73-.349.312-1.496.96-3.359l.24-.72-.72-.24z"/>
  <path d="m65.675,174.24v.48c.169.673.845.041.96-.48 1.041-.08.218,1.703.48,2.4 .98-.459 1.899-.98 2.88-1.44l.24.721 .24-.721c.775.136.827-.453 1.44-.479v.479h.48c.681-.041 1.359-.079 1.44.48l-.24.72 .24.72c-1.875,1.907 1.425,2.712 2.4,3.36-.821-.021-1.243.356-1.44.96l-.88-.24-.56.721c-.427-.213-.859-.422-.96-.96-1.3.62-2.966.874-3.36,2.399-2.372-1.385-2.225.076-5.28,0l.24-.88-.72-.56c-.088-.408.187-.453.48-.48-1.441-1.759-.137-6.263-2.88-6.72-.712.209.189.614 0,1.439-1.388-.212-2.188-1.012-2.4-2.399l.72-.24-.24-.72c1.024.224.914-.686.96-1.44l.72-.239-.24-.721h.96l.48.96 .48-.96c.386.254.779.501 1.44.48l-.24.88 .72.56v1.44h.96l-.24.72 .72-.24z"/>
  <path d="m74.555,176.56-.24-.88c2.369.03 3.991.809 5.28,1.92 1.241-1.393 6.348-2.646 6.72.48 .408.088.453-.188.48-.48l.72.24 .24-.721c.925.195.379,1.861 1.92,1.44l.72.24 .72.24c-.413.387-.285,1.314-.96,1.439 .14,1.46 2.539.662 2.88,1.92l-.72.24 .24.72c-1.808-.207-2.186,1.015-2.88,1.92l-.72.24 .24.72c-3.143-.956-4.303-.945-7.68-1.439 .347-2.107-1.601-1.92-3.36-1.92l.24-.88-.72-.561v-.96c-1.203-1.197-2.854-1.946-3.84-3.36l.72-.56z"/>
  <path d="m154.47,165.6c-1.293-1.285.611-1.825.96-2.88 1.533-.677 1.213,2.872.48,2.88l-.72-.24-.72.24z"/>
  <path d="m154.47,169.68 .48.24c1.259,1.136-.201,3.611-.48,4.8h.96l.48.24 .479-.24c.011,1.131-.826,1.413-.479,2.88l-.72.24 .239.72c-.511.929-2.211.669-2.88,1.44l-.479-.24-.48.24c.1-1.38-.121-2.438-.96-2.881l.24-.88-.72-.56v-5.28c.63.17.755.845 1.439.96v-.96l.88.24 .561-.72c.558.078.854-.106.96-.48l.48.24z"/>
  <path d="m163.97,167.83-.85.17c.562-1.998 1.442-3.678 3.84-3.841 .013.467.587.373.96.48 .605,3.005-2.486,2.313-3.36,3.84l-.59-.65z"/>
  <path d="m159.51,182.32-.24-.88c.964.163 1.502-.098 1.44-.96l.88.24 .561-.72c1.667,1.317 3.876.895 6.239.479l-.239.72 .72.24v2.88l.24.48 .239.479h-.479c-.062.861.587,1.013.479,1.92-2.086-.752-3.616-.878-5.76-.96-.503-.019-1.641-.905-1.439-.96-1.602.435-1.104,2.846-3.36,2.4l-.624-.624-.816-.336c.553-1.173 2.714-2.326 1.44-3.84l.72-.56z"/>
  <path d="m175.35,175.44-.72-.24v-1.439c2.016,1.213 3.004-.181 4.32-.96-.055,1.78 2.229,2.811.96,4.319l-.48-.239-.479.239c-.389.092-.479.482-.96.48l-.561-.72-.88.239c-.209-.59-.614-.985-1.439-.96l.24-.72z"/>
  <path d="m180.63,179.28-.24-.72c1.455.625 1.304,2.856 1.92,4.32h-1.92c.96,1.452-.092,3.311-2.88,3.359l.24-.72-.72-.24c-.896-2.183 3.496-2.782 2.88-6.239l.72.24z"/>
  <path d="m175.35,183.12-1.199.24 1.2-.24-.239-1.199h.479l-.24,1.2z"/>
  <path d="m173.92,182.16 .24,1.2c-.809.504-2.663,2.414-3.36,1.44l.24-.72-.721-.24c.315-1.285 1.375-1.825 1.92-2.88l.721-.24-.24-.72c.386-.254.779-.501 1.44-.48l.582.651 .857-.171c.061.86-.588,1.012-.479,1.92l-1.2.24z"/>
  <path d="m156.16,182.32 .72.561c.146,1.106-1.387.533-1.44,1.439v.48l-.72.24 .72.239c-1.968,1.001-4.151,6.608-6.72,3.84l.72-.239-.239-.721c.836.143 1.683-1.861 0-1.439v.479l-.721.24 .24.72c-1.004.276-1.37,1.19-2.88.96 .254-.386.501-.779.479-1.439-.406-1.132-1.182,1.322-2.88.479-.061-.86.588-1.012.48-1.92h-.48l.24-.72-.72-.24c.051-1.229.271-2.288.96-2.88l.56.72 .88-.239c.202,1.068 2.547.375 2.881,0-.418-1.396-.719-.54-1.921-.48 .432-.849 1.159-1.401 1.44-2.399 1.526.073 2.111,1.088 3.84.96l.24.72 .24-.72c.796.804 2.817.382 4.319.479l-.24.88z"/>
  <path d="m104.56,178.08c2.125-.525 2.387.812 3.839.96 .397,1.356-.676,1.243-.479,2.399 .77,1.544 1.794-1.688 2.88,0-.246,1.834-1.578,2.582-1.92,4.32-6.98,3.49-3.08-5.24-4.32-7.68z"/>
  <g fill="none" stroke="#000" stroke-linecap="round">
   <path d="m139.12,18.24c.14-.34.402-.558.72-.72" stroke-width=".6788"/>
   <path d="m129.04,38.88c.236-1.743.759-3.533 1.68-5.04" stroke-width=".6997"/>
   <path d="m124.71,48.72c.628-1.185.27-2.749 1.2-3.84" stroke-width=".8946"/>
   <path d="m32.795,46.16c.48.103.96.195 1.44.32" stroke-width="1.4924"/>
   <path d="m160.71,51.6c.426-.938-.131-1.938-.24-2.88" stroke-width="1.0733"/>
   <path d="m131.67,51.6v-.96" stroke-width=".5879"/>
   <path d="m73.115 51.6h1.44" stroke-width=".6017"/>
   <path d="m150.88 57.84c1.017-1.078 2.645-1.604 3.359-2.88" stroke-width=".6409"/>
   <path d="m161.43,58.32c.072-.408.297-.663.48-.96" stroke-width=".712"/>
   <path d="m72.635,58.8c1.158-.953 2.574-1.5 3.84-2.4" stroke-width=".9529"/>
   <path d="m84.635,58.32c.963-.137 1.803-.711 2.88-.48" stroke-width=".5944"/>
   <path d="m136.47,62.16c.334-1.71 1.855-2.776 2.4-4.32" stroke-width=".6368"/>
   <path d="m158.08,61.68c.628-.797.53-1.883 1.199-2.64" stroke-width=".9267"/>
   <path d="m148.47,60.959c.326-.157.667-.484.96-.72" stroke-width=".8851"/>
   <path d="m160,64.08c.293-.327.498-.444.698-.551 1.144,1.609.742,4.138-.698,5.351" stroke-width=".774"/>
   <path d="m57.275,73.2c.584-.227 1.133.021 1.92,0" stroke-width=".96"/>
   <path d="m57.275,73.2-.175.478c.168,2.905 3.092,4.819 5.935,4.322" stroke-width=".9844"/>
   <path d="m57.275 73.2c-3.152-1.388-6.549-5.194-3.6-8.4" stroke-width=".7772"/>
   <path d="m68.315,71.28c1.411-.385 2.431-1.237 3.36-2.4" stroke-width="1.3637"/>
   <path d="m164.79,73.2c.119-1.114.344-2.215.24-3.36" stroke-width=".9161"/>
   <path d="m135.51,72.72c.508.028.741-.219.96-.48" stroke-width=".6017"/>
   <path d="m103.84,84.72c-1.154-2.33-1.191-5.02-.24-7.44" stroke-width=".7807"/>
   <path d="m98.075,90.959c.182-1.294.481-2.562.72-3.84" stroke-width=".9759"/>
   <path d="m98.075,90.959c.424.871.552,1.88 1.28,2.56" stroke-width=".9191"/>
   <path d="m98.075,90.959c-.792-.527-1.644-.392-2.326-.548-1.255-1.28-1.483-3.007-1.736-4.667 .408-.651.656-1.406 1.182-1.984" stroke-width="1.0288"/>
   <path d="m121.59,96.719c1.118-.982 2.573-2 3.84-2.879" stroke-width=".6128"/>
   <path d="m142.24,96.719c.752-.446 1.572-1.119 1.92-1.919" stroke-width=".5936"/>
   <path d="m88.475,95.28c-.32,1.232.198,2.401.96,3.359" stroke-width=".6472"/>
   <path d="m115.35,97.2c.263-.058.375-.266.48-.48" stroke-width=".6072"/>
   <path d="m60.155,108.24c.344-.148.95-.516 1.44-.721" stroke-width=".898"/>
   <path d="m77.915,117.36c-.51-.156-.801-.222-1.062-.347-.605-.947-.611-2.006-.729-3.113-1.791-.911-4.301-.789-5.179-2.984 .051-.625.266-1.273.731-1.715" stroke-width="1.0285"/>
   <path d="m71.675,117.36c-.328,1.258.562,2.261 1.68,2.641" stroke-width=".6788"/>
   <path d="m92.795,119.28 .147-.333c1.298-.362 2.309-1.191 3.453-1.827" stroke-width=".6391"/>
   <path d="m103.6,123.36c.238.562.6,1.001.72,1.681" stroke-width=".6788"/>
   <path d="m111.75,127.2c-3.204.918-7.466,7.565-3.12,9.6" stroke-width="1.1281"/>
   <path d="m100.48,135.12c-1.594-2.159-4.419-1.239-6.332-3.186-.101-.282-.114-.617-.148-.895" stroke-width=".998"/>
   <path d="m111.51,136.08c.408.091.66.188.955.223 .95-.378 1.232-1.476 1.925-2.143" stroke-width=".7494"/>
   <path d="m67.835,172.08c-.016-1.295 1.216-2.122 1.44-3.36" stroke-width=".6229"/>
   <path d="m55.835,174.96c.732.857 2.15,1.167 2.4,2.399" stroke-width="1.105"/>
   <path d="m137.43,181.68c.833,1.315.564,2.931 1.2,4.32" stroke-width=".8878"/>
   <path d="m110.55,186.96c.843-1.57 1.24-3.599 2.4-4.801" stroke-width=".6989"/>
   <path d="m154.23 84.72c1.455-2.188 3.927-4.675 3.771-7.337" stroke-width=".6788"/>
   <path d="m157.59,77.52-.72.72" stroke-width=".6788"/>
   <path d="m159.04,74.64c.618-1.136 1.783-1.961 2.88-2.76" stroke-width="1.0998"/>
   <path d="m161.92,71.88c.167-.932.198-1.942.72-2.76" stroke-width=".96"/>
   <path d="m161.92,71.88c.794.253.759,1.049.72,1.8" stroke-width="1.6278"/>
   <path d="m170.39,58.32 .32.96" stroke-width="1.5179"/>
   <path d="m168.39,78.6c-.071.272-.216,1.046-.377,1.731" stroke-width="1.6348"/>
   <path d="m113.43,169.2c.906.452 1.979,0 2.881.48" stroke-width="1.0245"/>
   <path d="m122.55,171.6c.965.506 2.146.562 2.88,1.44" stroke-width=".9379"/>
   <path d="m125.43,173.04c1.273-.277 2.875-.489 4.08,0" stroke-width="1.0253"/>
   <path d="m129.51,173.04c.823-.065 1.648.008 2.4.359" stroke-width=".72"/>
   <path d="m131.92,173.4c.942-.166 2.091-.32 2.88.36" stroke-width="1.0625"/>
   <path d="m134.79,173.76c.687-.442 1.245-1 1.872-1.488" stroke-width="1.4239"/>
   <path d="m139.59,167.52c-.22.458-.389.851-.479,1.2" stroke-width=".774"/>
   <path d="m137.43,172.08c.769.911 2.144,1.151 2.561,2.399" stroke-width="1.0946"/>
   <path d="m125.92,180c.167.093.593.404.96.72" stroke-width="1.5367"/>
   <path d="m79.355,172.8c.308-.159.585-.257.96-.4" stroke-width="1.3576"/>
   <path d="m5.595,52.08c-.478-.977-.567-1.569-.88-2.4" stroke-width="1.4795"/>
   <path d="m10.139,56.976c.868.355 1.574,1.084 2.496,1.344" stroke-width="1.4924"/>
   <path d="m23.195,62.959c.48.103.96.195 1.44.32" stroke-width="1.4924"/>
   <path d="m25.955,63.36c1.123-.208 2.076.336 3,.88" stroke-width="1.217"/>
   <path d="m13.115,61.04c-.898.428-2.003.701-2.56,1.6" stroke-width="1.4627"/>
   <path d="m35.195,74.64c.793.198 1.566.517 2.4.48" stroke-width=".8158"/>
   <path d="m42.121,83.554c-.154-.492-.179-1.062-.206-1.474" stroke-width="2.4569"/>
   <path d="m41.915,82.08-.18-.36" stroke-width="2.1466"/>
   <path d="m41.735,81.72c-1.003-.349-1.443-1.607-.9-2.52" stroke-width="1.4053"/>
   <path d="m40.835,79.2-.082-.237c.15-.912.84-1.602 1.022-2.5 .718-.539 1.633-.872 2.54-.703" stroke-width="1.0835"/>
   <path d="m46.05,75.046c-.285-1.027-.974-1.855-1.416-2.806" stroke-width="1.3994"/>
   <path d="m43.835,70.8c-1.333-.762-1.002-2.576-.8-3.84" stroke-width="1.5052"/>
   <path d="m34.235,54c.85.244 1.147,1.079 1.92,1.44" stroke-width=".9863"/>
   <path d="m36.155,55.44c2.239-.992 4.152-2.919 6.72-2.88" stroke-width=".68"/>
   <path d="m36.155,55.44c-.086,2.537-.14,6.12 2.88,6.96" stroke-width=".7332"/>
   <path d="m49.755,60.24c-.121-1.981-1.523-3.834-.4-5.76" stroke-width="1.6857"/>
   <path d="m54.875,59.76c-.48-.028-.96.219-1.44.48" stroke-width=".6072"/>
   <path d="m54.875,60.959c-.48.178-.96.11-1.44.08" stroke-width="1.4076"/>
   <path d="m49.595,64.56c-.32-.057-.64-.265-.96-.48" stroke-width=".6197"/>
   <path d="m44.315,70.32c.879-.429 1.806-.672 2.74-.906 .072-.083.101-.327.127-.579 .004-.145.008-.29.013-.435" stroke-width="1.133"/>
   <path d="m47.195,68.4c-.678-.216-1.239-.208-1.68-.24" stroke-width="1.0182"/>
   <path d="m47.195,68.4c.32-.263.64-.375.96-.48" stroke-width=".96"/>
   <path d="m47.675,74.64 .96-.96" stroke-width=".8653"/>
   <path d="m43.955,79.08c.617-.225.844-.276 1.2-.36" stroke-width="1.7307"/>
   <path d="m45.155,78.72c.238-.576.384-.847.6-1.2" stroke-width=".9191"/>
   <path d="m45.155 78.72h1.32" stroke-width=".9992"/>
   <path d="m41.915,82.08c.935-.976 2.37-.443 3.36-1.2" stroke-width=".6414"/>
   <path d="m42.121,83.554c.336.111.803.159 1.234.206" stroke-width="2.4569"/>
   <path d="m43.355,83.76c.613-.989 1.875-.936 2.64-1.68" stroke-width=".9233"/>
   <path d="m43.355,83.76c1.021.556 2.335,1.017 3.36.24" stroke-width="1.2394"/>
   <path d="m42.121,83.554c-1.682.87-3.026,2.441-5.006,2.766" stroke-width="1.229"/>
   <path d="m45.275,90.959c1.056-.171 2.044-.651 3.12-.72" stroke-width="1.1758"/>
   <path d="m43.355,93.12h.96" stroke-width="1.0182"/>
   <path d="m42.875,94.8c.812-.045 1.792.23 2.4-.48" stroke-width=".6573"/>
   <path d="m52.475,99.599c.289-.153.796-.391 1.371-.617" stroke-width="1.592"/>
   <path d="m58.235,96.24c-.322-.905-.362-1.978 0-2.88" stroke-width="1.0245"/>
   <path d="m52.235,80.64c-.252.83-.712,1.78-.24,2.64" stroke-width=".8314"/>
   <path d="m51.995,83.28c.48-.336.96-.367 1.44-.48" stroke-width=".7065"/>
   <path d="m51.995,83.28c-.005.494.036.85.08,1.2" stroke-width="1.4872"/>
   <path d="m52.075,84.479c.813.046 1.734-.108 2.32-.72" stroke-width=".8314"/>
   <path d="m52.075,84.479c.131.924.075,1.978.88,2.64" stroke-width="1.2119"/>
   <path d="m52.955,87.12c.48-.336.96-.366 1.44-.48" stroke-width=".7065"/>
   <path d="m56.315,90c.406-.699.762-.799 1.44-.96" stroke-width=".8851"/>
   <path d="m59.195,90c-.422.072-.554.297-.72.48" stroke-width=".72"/>
   <path d="m60.635,92.399c1.165-.016 2.549.026 3.36-.96" stroke-width="1.2305"/>
   <path d="m63.035,98.16c5.906-.395 9.069-6.62 14.88-7.2" stroke-width="1.2346"/>
   <path d="m63.035,101.04c.48-.337.96-.366 1.44-.48" stroke-width=".5879"/>
   <path d="m78.155,101.76c1.271-.633 2.614-1.256 4.08-1.2" stroke-width=".6182"/>
   <path d="m77.035 102.56c6.061 2.774 13.528-1.835 19.6 2" stroke-width="1.4356"/>
   <path d="m102.88,102.48c.32-.263.64-.375.96-.479" stroke-width=".7589"/>
   <path d="m105.28,104.08c1.994-.919 4.521-.53 6.048-2.368" stroke-width="1.6843"/>
   <path d="m111.32,101.71c-.09-.162-.188-.415-.288-.672" stroke-width="1.6278"/>
   <path d="m111.04,101.04c-.48-.337-.96-.366-1.44-.48" stroke-width=".7065"/>
   <path d="m111.04,101.04c.154-.408.293-.663.479-.96" stroke-width=".9191"/>
   <path d="m111.32,101.71c2.671-.217 4.514-2.244 6.912-3.072" stroke-width="1.2542"/>
   <path d="m71.675,102.8c-2.995,1.309-5.708-.021-8.64-.479" stroke-width="1.5643"/>
   <path d="m59.675,99.12c-1.598.462-3.128,1.146-4.8,1.439" stroke-width=".6197"/>
   <path d="m55.286,98.502c-.436.088-.876.167-1.303.274" stroke-width="1.4924"/>
   <path d="m47.675,104.4c.48-.336.96-.366 1.44-.479" stroke-width=".5879"/>
   <path d="m47.675,105.36c.641.021 1.628.032 2.16-.239" stroke-width=".5879"/>
   <path d="m59.675,105.84c-3.357.418-6.468,2.283-8.64,4.8" stroke-width=".9062"/>
   <path d="m50.075,114c.494-.322.851-.477 1.2-.72" stroke-width=".72"/>
   <path d="m51.899,115.82c.226-.254.459-.502.672-.769" stroke-width="1.7307"/>
   <path d="m55.835,116.88c.848-1.058 1.749-2.112 2.76-3" stroke-width="1.2316"/>
   <path d="m58.595,113.88c.965-.919 1.602-2.365 2.76-3" stroke-width="1.2998"/>
   <path d="m58.595,113.88c.611.506 1.329.875 1.993,1.302 .233-.046.627-.174 1.007-.222" stroke-width=".8542"/>
   <path d="m59.675,122.88c.929-.099 1.135-1.251 2.16-1.2" stroke-width=".8764"/>
   <path d="m61.835 121.68c1.208-1.277 1.004-3.857 3.28-4.16" stroke-width="1.0527"/>
   <path d="m65.115,117.52c.301-.705.361-1.467.56-2.2" stroke-width=".7777"/>
   <path d="m65.115,117.52c.247.848.712,1.542 1.388,2.133 .709.015 1.359.283 2.052.348" stroke-width=".6586"/>
   <path d="m61.835,121.68c.25,1.821-1.023,3.104-2.16,4.32" stroke-width=".6712"/>
   <path d="m68.315,129.36c.613-.984 1.463-1.75 2.4-2.399" stroke-width=".6414"/>
   <path d="m70.715,126.96c-.168-.48-.183-.96-.24-1.44" stroke-width="1.0295"/>
   <path d="m70.715,126.96c.544.212.825.475 1.2.72" stroke-width="1.4599"/>
   <path d="m74.075 127.92c1.57-1.19 2.275-3.285 3.84-4.32" stroke-width=".5728"/>
   <path d="m80.315,125.04c-.027-1.477 1.289-2.193 1.92-3.36" stroke-width=".6956"/>
   <path d="m82.235,121.68c-.264-.759-.225-1.242-.162-1.653 .428-.317.908-.645 1.122-1.227" stroke-width=".7803"/>
   <path d="m82.235,121.68c.925.415 1.946.222 2.88,0" stroke-width=".9798"/>
   <path d="m79.835,129.36c.156.511.222.802.347,1.062 .939.337 1.764.893 2.772,1.098" stroke-width="1.0069"/>
   <path d="m76.475,128.24-.96.319" stroke-width="1.5179"/>
   <path d="m75.275,138c-.027-1.013.634-1.886.72-2.88" stroke-width=".8439"/>
   <path d="m76.715,138c.09-.711.672-1.21.72-1.92" stroke-width=".72"/>
   <path d="m78.395,139.92c.22-.498.388-.888.48-1.44" stroke-width=".8032"/>
   <path d="m89.435,141.84v-.96" stroke-width="1.4795"/>
   <path d="m86.315,138.72c.312-.014.777.109 1.2.24" stroke-width="1.0182"/>
   <path d="m94.555,140.4c.148-.678.319-1.239.4-1.68" stroke-width="1.288"/>
   <path d="m97.835,142.08c.768,1.728 3.449.739 4.08,2.64" stroke-width=".9968"/>
   <path d="m104.08,145.2c.05-1.152.498-2.239.72-3.36" stroke-width=".8011"/>
   <path d="m104.79,145.68 .96-.96" stroke-width=".7838"/>
   <path d="m105.75,144.72c-.034-.675.222-1.058.48-1.44" stroke-width=".6788"/>
   <path d="m105.75,144.72c1.786.333 2.253-1.815 3.84-1.92" stroke-width=".7513"/>
   <path d="m111.04,144.72c-.998-.753.146-1.528 0-2.4" stroke-width=".5967"/>
   <path d="m111.51 144.88c5.114-4.429 5.837-12.265 10.464-17.056" stroke-width="1.4795"/>
   <path d="m130.24,120.72c.319.058.64.265.96.48" stroke-width=".5879"/>
   <path d="m127.35,119.28 .147-.333c1.021-.512 2.173-.217 3.213-.628" stroke-width=".8497"/>
   <path d="m134.08,114.96c-.478-.268-.551-.479-.721-.72" stroke-width="1.0369"/>
   <path d="m136,108.72c.168-.479.183-.96.24-1.439" stroke-width="1.0295"/>
   <path d="m136,108.72c.647.23 1.299.129 1.846.195 .54.604.523,1.601 1.514,1.725" stroke-width="1.0343"/>
   <path d="m146.43,105.6c-.687-1.693 1.387-2.822 2.521-3.6" stroke-width=".7565"/>
   <path d="m146.43,105.6c1.498-.072 2.093-1.851 3.601-1.92" stroke-width=".7763"/>
   <path d="m150.04,103.68c.765-1.619 2.026-2.933 2.76-4.56" stroke-width=".8946"/>
   <path d="m150.04,103.68c.084.312.091.777.12,1.2" stroke-width="1.0182"/>
   <path d="m155.67,98.16c.604-.196 1.165-.436 1.68-.721" stroke-width=".6788"/>
   <path d="m160.71,89.919c-1.704.908-2.683,2.801-3.6,4.4" stroke-width=".808"/>
   <path d="m160.71,89.919c.002-.588.032-1.594-.113-1.938-.537.01-.812-.556-.847-1.341" stroke-width="1.0226"/>
   <path d="m157.12,87.12c.503-.671 1.009-1.376 1.92-2.04" stroke-width="1.6857"/>
   <path d="m155.2,85.68c.72-.892 1.558-1.684 2.159-2.64" stroke-width=".5733"/>
   <path d="m159.75,78.24c-.134.966-1.083,1.6-.96,2.64" stroke-width=".7412"/>
   <path d="m168.39,78.6c-.919-.297-1.188-.393-1.395-.628 .257-.772.118-1.611.435-2.372" stroke-width=".8412"/>
   <path d="m168.39 78.6c1.652-4.28 2.62-8.958 2.48-13.56" stroke-width="1.8018"/>
   <path d="m168.79 53.04c-1.462-5.711-6.77-10.083-6.561-16.32" stroke-width="1.7862"/>
   <path d="m150.39,33.6c-.804.123-1.428-.319-1.92-.72" stroke-width=".9895"/>
   <path d="m151.59,23.76c.074-.35.317-.755.618-1.064 .471-1.188-.729-2.078-.618-3.256" stroke-width=".6788"/>
   <path d="m159.63,20.28c.566.208.954.355 1.32.6" stroke-width="1.1758"/>
   <path d="m161.92,25.68c1.786-.169 4.054-.517 5.279.96" stroke-width=".901"/>
   <path d="m174.23,29.04c.584-3.245-2.202-5.637-3.816-8.092" stroke-width="1.288"/>
   <path d="m74.195,47.64c-.288.853-1.244.854-1.56,1.56" stroke-width=".752"/>
   <path d="m63.995 48.24v-1.44" stroke-width=".5543"/>
   <path d="m55.835,48.72c.32.131.64.188.96.24" stroke-width="1.0369"/>
   <path d="m53.195,50.76c1.391-.025 2.959.009 4.32-.36" stroke-width=".7332"/>
   <path d="m55.115,52.32c-.262.005-.644.608-1.04,1.04" stroke-width="1.1257"/>
   <path d="m53.435,53.52c-.646-.427-.943-.75-1.333-1.07-.071-.276-.049-.534-.022-.792 .384-.526.777-.7 1.115-.898" stroke-width=".7065"/>
   <path d="m53.195,50.76c-.18-1.446 1.48-2.014 2.64-2.04" stroke-width="1.1257"/>
   <path d="m55.835,48.72c.382-1.204 1.872-1.415 2.88-1.92" stroke-width=".9379"/>
   <path d="m50.651,40.944c-.4-.257-.843-.515-1.152-.768" stroke-width="1.6628"/>
   <path d="m42.875 34.32c1.228 1.429 2.968 2.296 4.08 3.84" stroke-width=".8167"/>
   <path d="m66.395,45.84c2.538.566 5.724-.043 7.8,1.8" stroke-width="1.3954"/>
   <path d="m74.195,47.64c11.76.726 24.503,4.527 35.88-.04" stroke-width="1.472"/>
   <path d="m121.28 34.16c6.701-10.758 15.931-21.326 29.119-23.52" stroke-width="1.3679"/>
   <path d="m150.55,9.36c-.274-.48-.569-.96-.8-1.44" stroke-width="1.4664"/>
   <path d="m150.74,5.931c.087-.627.265-1.115.521-1.467" stroke-width="1.5554"/>
   <path d="m161.43,3.12-.473.271c-.168.291-.192.754-.247,1.17" stroke-width="1.0295"/>
   <path d="m156.39,7.92c-.1-.324-.251-.821-.479-1.2" stroke-width=".72"/>
   <path d="m154.23,5.52c-1.129.267-2.312.561-3.497.411" stroke-width=".8851"/>
   <path d="m160.71,12.24c-.071.328-.057.643-.038.958 .728.58 1.227,1.503 2.198,1.683" stroke-width=".752"/>
   <path d="m157.12,20.72c.717.297 1.947-.142 2.52-.44" stroke-width="1.4199"/>
   <path d="m159.63,20.28c-.104-.62-.727-1.472-1.56-1.8" stroke-width="1.2924"/>
   <path d="m151.35,29.04c.019-.64-.39-1.28-.64-1.92" stroke-width="1.4559"/>
   <path d="m26.624,65.863c1.093.348 2.065,1.227 3.292.937" stroke-width="1.156"/>
   <path d="m41.735,81.72c.191-1.344 1.759-1.437 2.22-2.64" stroke-width=".9466"/>
   <path d="m43.955,79.08c-1.032-.215-2.113-.162-3.12.12" stroke-width=".7436"/>
   <path d="m51.035,101.04c.339.029.614-.056.886-.146 .204-.381.352-.846.555-1.294" stroke-width="1.3363"/>
   <path d="m52.475,99.599c-1.085-.221-2.25-.537-3.36-.319" stroke-width="1.2109"/>
   <path d="m47.675,102.48c.943-.161 1.765-.621 2.807-.549 .203-.18.351-.535.553-.891" stroke-width=".7155"/>
   <path d="m51.035,101.04c-.742-.435-1.375-.401-1.92-.48" stroke-width=".712"/>
   <path d="m148.31,108.72c.256-.499.716-.813 1.12-1.12" stroke-width="1.4664"/>
   <path d="m146.43,105.6c-.238.855-.491,1.546-1.08,2.16" stroke-width=".7436"/>
   <path d="m136,108.72c-.986.617-1.149,1.748-.893,2.803 .459.588.975,1.099 1.372,1.518" stroke-width=".8764"/>
   <path d="m139.83,111.6c-.518.896-1.762,1.037-2.4,1.92" stroke-width="1.1384"/>
   <path d="m138.39,114.8 .96.32" stroke-width="1.5179"/>
   <path d="m111.51,168.24c-.603-.451-1.258-.826-1.92-1.119" stroke-width="1.3083"/>
   <path d="m112.96,172.32c.818.103 1.752.134 2.399.721" stroke-width=".8158"/>
   <path d="m115.35,173.04c.704-.093.989-.239 1.2-.301" stroke-width="1.6488"/>
   <path d="m116.55,172.74c.019-.923-.044-1.852.048-2.771" stroke-width="1.1593"/>
   <path d="m116.55,172.74c.572.034 1.438.124 1.761.221" stroke-width="1.9888"/>
   <path d="m118.32,172.96c.498-.568.556-1.211.64-1.84" stroke-width="1.0946"/>
   <path d="m122.31,174c.049-.803.326-1.574.24-2.4" stroke-width=".8314"/>
   <path d="m118.32,172.96c.063.173.367.951.56,1.52" stroke-width="1.859"/>
   <path d="m115.35,173.04c-.142.696-.686.832-1.439,1.439" stroke-width=".8032"/>
   <path d="m129.51,173.04c-.038.64.041,1.279.24,1.92" stroke-width="1.0182"/>
   <path d="m131.92 173.4v2.473" stroke-width="1.0069"/>
   <path d="m120.16,178.64c.668.311 1.387.397 2.111.448" stroke-width="1.8487"/>
   <path d="m122.27,179.09c.491-.688.903-1.436 1.248-2.208" stroke-width="1.0369"/>
   <path d="m122.27,179.09c.598,1.474 2.441.731 3.648.912" stroke-width="1.1578"/>
   <path d="m125.92,180c.056-1.097-.264-2.266-.96-3.12" stroke-width="1.146"/>
   <path d="m9.515 27.36c6.643 2.986 11.925 8.043 18 11.76" stroke-width=".9235"/>
   <path d="m6.875,32.64c1.904.394 4.09.105 5.76,1.2" stroke-width=".8952"/>
   <path d="m12.635,33.84c.336-.044.611-.117.884-.19 .35.08.942.139 1.524.332 .182.415-.037.818-.139,1.149-2.438,1.563-5.229,2.576-7.357,4.757" stroke-width=".764"/>
   <path d="m7.547,39.888c.614.739 1.423,1.059 2.208,1.312" stroke-width="1.5179"/>
   <path d="m17.435,37.92c-2.35.316-4.317,1.451-6.48,2.4" stroke-width=".6573"/>
   <path d="m23.195,41.52-.144-.336c-1.595-.167-2.945-.779-4.417-1.344" stroke-width=".5615"/>
   <path d="m23.195,42.96c-1.741-.103-3.453-.384-5.04-1.2" stroke-width=".6072"/>
   <path d="m22.715,46.32c.828-.14 1.608-.577 2.4,0" stroke-width="1.7055"/>
   <path d="m31.643,60.432c1.005.235 1.883.591 2.592,1.248" stroke-width="1.2143"/>
   <path d="m29.915,60.72c.663.017 1.247-.131 1.728-.288" stroke-width=".8851"/>
   <path d="m31.643,60.432c-.159-1.297-1.417-1.368-2.208-2.112" stroke-width="1.4106"/>
   <path d="m23.915,54.24c-.204-1.066-.966-1.824-1.337-2.571" stroke-width="1.4533"/>
   <path d="m7.547,39.888-.192-.048" stroke-width="1.9791"/>
   <path d="m4.475,35.76c1.014-.819 2.545-1.591 2.4-3.12" stroke-width=".7176"/>
   <path d="m6.875,32.64c-.32-.029-.64-.132-.96-.24" stroke-width="1.0182"/>
   <path d="m.635,27.36c.821-.035 1.598.271 2.4.4" stroke-width="1.27"/>
   <path d="m4.955,27.76c1.458-1.107 3.199.823 4.56-.4" stroke-width="1.0111"/>
   <path d="m9.515 27.36c-4.388-4.329-1.568-11.416 5.04-10.48" stroke-width="1.3887"/>
   <path d="m18.875 12c9.854 1.151 14.937 11.396 20.64 18.48" stroke-width=".7252"/>
   <path d="m22.715 27.12c-1.66-2.277-1.562-5.76-4.48-7.04" stroke-width=".725"/>
   <path d="m5.023,38.982c.755.469 1.586.677 1.972.857" stroke-width="1.5179"/>
   <path d="m12.635 33.84c-2.28 1.457-4.95 1.642-7.2 3.36" stroke-width=".9133"/>
   <path d="m28.475,25.2c.941-.866.082-2.097-.48-2.88" stroke-width=".6103"/>
   <path d="m28.475,25.2-.003.476c.606.869 1.615,1.743 2.782,1.69 2.203,1.563.082,4.488 2.021,5.994" stroke-width=".9494"/>
   <path d="m28.475,25.2c-1.15-.309-1.448-1.762-2.4-2.4" stroke-width="1.28"/>
   <path d="m34.715,41.52c2.152.9 3.683,2.978 6.12,3.48" stroke-width=".7851"/>
   <path d="m40.835,45c.411-.564.531-1.052.76-1.56" stroke-width="1.4599"/>
   <path d="m40.835,45c.283,1.42 1.318,3.245 3,3" stroke-width="1.3218"/>
   <path d="m119.67,51.6c.263-.057.375-.265.48-.48" stroke-width=".6072"/>
   <path d="m127.35,54c.255-.226.371-.589.48-.96" stroke-width=".712"/>
   <path d="m79.835,54h.96" stroke-width=".6072"/>
   <path d="m68.795 58.8c2.403-1.278 4.627-3.708 7.68-3.84" stroke-width=".7244"/>
   <path d="m87.035 66c7.045-4.586 15.034-8.473 23.52-10.56" stroke-width=".7151"/>
   <path d="m133.59,60.72c-.067.286-.057.53-.043.773 .192.241.354.318.514.388 1.06-.421 1.434-1.697 1.93-2.601" stroke-width=".6648"/>
   <path d="m36.155,64.56c.856.877 1.659,2.038 1.92,3.36" stroke-width=".532"/>
   <path d="m136.47,68.4c1.24-.964 2.546-2.064 3.36-3.36" stroke-width=".5857"/>
   <path d="m152.79,73.2 .329-.144c.745-2.38 2.329-4.484 2.311-7.056" stroke-width=".7294"/>
   <path d="m142.24,82.32c.689-.946 1.432-1.819 1.92-2.88" stroke-width=".7248"/>
   <path d="m152.31,80.4c.263-.058.375-.266.48-.48" stroke-width=".6072"/>
   <path d="m145.59,80.88c.263-.058.375-.266.48-.48" stroke-width=".6072"/>
   <path d="m71.675,86.16c.32.263.64.375.96.48" stroke-width="1.4559"/>
   <path d="m71.675,86.16c-.882-.039-1.638-.68-2.502-.824-.591-1.308-.996-2.922-.138-4.216" stroke-width="1.1426"/>
   <path d="m71.675,86.16 .96-.96" stroke-width=".728"/>
   <path d="m110.08,81.84-.329.15c-.097.383-.319.642-.53.911-.251,1.756-.083,4.07 1.339,5.179" stroke-width=".6217"/>
   <path d="m134.08,85.2c1.524-.202 2.153-1.797 3.359-2.4" stroke-width=".5775"/>
   <path d="m140.79,87.6c.2-.439.503-.777.96-.96" stroke-width=".5987"/>
   <path d="m132.16,93.36c1.638-.294 3.311-1.187 4.319-2.4" stroke-width=".709"/>
   <path d="m152.55,93.6c-.224.417-.569.71-.72,1.2" stroke-width=".6017"/>
   <path d="m141.27,94.8c-.879.269-1.041,1.238-1.439,1.919" stroke-width=".5944"/>
   <path d="m144.63,102.24c1.092.305 1.598-.711 2.4-1.2" stroke-width=".7311"/>
   <path d="m142.71,104.4c.373-.927 1.288-1.421 1.92-2.159" stroke-width="1.4838"/>
   <path d="m144.63,102.24c.129-1.007.917-1.947 1.92-2.16" stroke-width=".7945"/>
   <path d="m54.875,102c.348-.031.587.059.82.153 .123.403-.11.621-.34.807" stroke-width=".5879"/>
   <path d="m74.075,107.28c.48-.172.96-.375 1.44-.48" stroke-width=".5794"/>
   <path d="m115.83,110.16c-1.077-.285-3.193.61-2.4,1.92" stroke-width=".6808"/>
   <path d="m104.79,117.36c.347,1.11.844,2.291 1.92,2.881" stroke-width=".6549"/>
   <path d="m100.48,119.76c-.8,1.062-.625,2.645.24,3.6" stroke-width=".5706"/>
   <path d="m113.67,129.6 .407.263c1.632.001 2.846-1.701 3.673-2.902" stroke-width=".6232"/>
   <path d="m134.39,160.88c-.937,2.812-2.593,5.364-3.733,8.115 4.3-.331 6.004-7.403 8.693-10.835" stroke-width=".9618"/>
   <path d="m67.595,161.76c-.603,1.667-.5,3.849-1.912,5.034-.899-.942-.453-2.635-.248-3.834" stroke-width=".8497"/>
   <path d="m37.115,175.92c1.675.999 3.616,2.728 5.445,2.911 .088-.737-.728-1.692-.06-2.236 .419.03.816.198 1.211.414 .436.396.897.516 1.564.831" stroke-width=".8774"/>
   <path d="m47.675,175.68c.506.268 1.151.551 1.92,1.2" stroke-width="1.1035"/>
   <path d="m46.635,170.4c-1.837.002-2.979-1.509-4.24-2.64" stroke-width=".6997"/>
   <path d="m46.635,170.4c.268-1.624-.777-2.818-1.2-4.24" stroke-width="1.1384"/>
   <path d="m46.635 170.4c1.243 4.476 7.107 2.531 7.76 7.44" stroke-width="1.2427"/>
   <path d="m119.35 182.96c3.458 1.904 7.129 7.371 11.12 6.159" stroke-width="1.2077"/>
   <path d="m130.47,189.12c-1.032-1.652-.638-4.106 1.2-5.039" stroke-width=".916"/>
   <path d="m65.675,110.28c.558-.684 1.481-.416 2.16-.841" stroke-width=".8314"/>
   <path d="m66.395,112.32c-.438-.246-.814-.815-1.048-1.215 .113-.448.25-.654.328-.824" stroke-width="1.5263"/>
   <path d="m65.675,110.28c-.04-1.479 1.31-2.687 2.64-3" stroke-width=".6482"/>
   <path d="m70.235,175.92c-.227-.928.491-1.558.723-2.376 .267-.286.643-.263.957-.196 .224.373.221,1.026.166,1.543l-.166.309" stroke-width=".728"/>
   <path d="m73.595,176.4c.32.02.64.089.96.16" stroke-width="1.4795"/>
   <path d="m87.515,177.84c-.22-.498-.388-.889-.48-1.44" stroke-width=".8314"/>
   <path d="m90.875,177.84c-.627-.8-.78-1.601-1.2-2.4" stroke-width="1.192"/>
   <path d="m90.875,177.84c.264.006.351.005.43.004 .273-.214.404-.869.29-1.444" stroke-width="2.0121"/>
   <path d="m90.875,177.84c-.194.319-.338.64-.48.96" stroke-width="1.7745"/>
   <path d="m92.315,182.64c3.094,1.26 5.466,4.417 8.882,4.114 .652-1.553-.157-3.222-.002-4.834" stroke-width="1.0615"/>
   <path d="m88.955,185.52c.497.334.687.53.96.72" stroke-width="1.0733"/>
   <path d="m78.395,182c-1.04.454-2.172,1.338-3.36.964-.683-.502-.863-1.145-1.12-1.765" stroke-width="1.44"/>
   <path d="m60.635,183.36c1.213.172 2.347-.267 3.36-.88" stroke-width="1.27"/>
   <path d="m59.195 173.52c-1.086-1.023-1.626-2.561-2.4-3.84" stroke-width="1.0961"/>
   <path d="m60.635,171.12c-.667-.302-.881-1.092-1.2-1.681" stroke-width="1.0422"/>
   <path d="m60.875,167.52c.234,1.32 1.095,2.448.96,3.84" stroke-width=".842"/>
   <path d="m63.515,171.76c.474-.394.667-.75.96-1.12" stroke-width="1.3291"/>
   <path d="m64.955 174.48c1.119-2.495 2.297-4.912 2.88-7.68" stroke-width=".6499"/>
   <path d="m155.92,174.96c.472-1.43 1.9-2.323 2.16-3.84" stroke-width=".8127"/>
   <path d="m157.59 177.84c2.064-3.437 3.627-7.067 6.377-10.012" stroke-width="1.4508"/>
   <path d="m157.59,177.84c-.357,1.554 1.021,2.662.96,4.16" stroke-width="1.27"/>
   <path d="m158.55,182 .96.319" stroke-width="1.5179"/>
   <path d="m161.59,180.72c-1.128-1.684-.754-6.122 2.042-5.076 .177.457.172,1.104.198,1.716" stroke-width="1.3188"/>
   <path d="m169,179.52c-.888-.73-1.089-1.785-1.801-2.64" stroke-width="1.1538"/>
   <path d="m169,179.52c1.054-.192 1.99.992 3,.24" stroke-width="1.0335"/>
   <path d="m172,179.76c.543-1.749 1.925-3.229 3.359-4.32" stroke-width="1.067"/>
   <path d="m179.43,176.88c.261.86.656,1.685 1.2,2.399" stroke-width=".72"/>
   <path d="m157.18,187.58c.47-.18.733-.351.987-.521" stroke-width="1.6278"/>
   <path d="m158.55,182c-.771.284-1.626.023-2.399.319" stroke-width="1.5179"/>
   <path d="m155.67,185.04h-.96" stroke-width=".5879"/>
   <path d="m149.43,188.88c-.308-.48-.585-.96-.96-1.44" stroke-width=".8314"/>
   <path d="m143.67,185.52c-.824.243-1.645,1.275-2.547.648-.744-1.689-.004-3.682-.573-5.448" stroke-width="1.4022"/>
   <path d="m144.47,183.12c.257-1.111.257-2.28.641-3.359" stroke-width="1.2924"/>
   <path d="m151.83,181.68c-.053-.694.149-1.479.24-1.92" stroke-width=".6788"/>
   <path d="m150.88,176.24c-.697.136-1.214.289-1.563.374-.892-1.249-1.482-2.951-1.557-4.533" stroke-width="1.3339"/>
   <path d="m152.47,170.64c-.469-1.241.327-2.775-.64-3.84" stroke-width="1.4704"/>
   <path d="m154.47,169.68c-.042-1.484 1.112-2.741.721-4.32" stroke-width="1.2496"/>
   <path d="m174.74,180.17c.984-1.004 2.01-1.966 2.697-3.291" stroke-width="1.1452"/>
   <path d="m172,179.76 .96.96" stroke-width=".96"/>
   <path d="m173.92,182.16 1.439.96" stroke-width="1.7307"/>
   <path d="m175.35,183.12c.703-.951 1.475-1.732 2.16-2.64" stroke-width=".9992"/>
   <path d="m175.35,183.12c-.188.915-.795,1.873-.329,2.811 .863.665 1.874-.145 2.729-.41" stroke-width="1.4102"/>
   <path d="m157.59,177.84c-.8.202-1.6.264-2.399,0" stroke-width="1.1085"/>
   <path d="m169.12,184.8c.653-.206 1.296-.436 1.92-.72" stroke-width=".8701"/>
   <path d="m169,179.52c-.124.323-.279.919-.84,1.68" stroke-width=".8542"/>
  </g>
 </g>
</svg>
